<svg width="10px" height="10px" id="Layer_1" data-name="Layer 1" xmlns="http://www.w3.org/2000/svg" viewBox="0 0 123.51 123.56"><defs><style>.cls-1{fill:#fff;}.cls-1,.cls-2,.cls-3{stroke:#000;stroke-miterlimit:10;}.cls-2{fill:#00acff;}.cls-2,.cls-3{stroke-width:4px;}.cls-3{fill:none;}</style></defs><path d="M108.91,123.46a14.76,14.76,0,0,0,14.75-14.77v-94A14.76,14.76,0,0,0,108.91-.1h-94A14.77,14.77,0,0,0,.14,14.67v94a14.78,14.78,0,0,0,14.77,14.77Z" transform="translate(-0.14 0.1)"/><path class="cls-1" d="M14.91,2.4A12.28,12.28,0,0,0,2.64,14.67v94A12.29,12.29,0,0,0,14.91,121h94a12.28,12.28,0,0,0,12.26-12.27v-94A12.28,12.28,0,0,0,108.91,2.4Z" transform="translate(-0.14 0.1)"/><path class="cls-2" d="M89,92.92a42.37,42.37,0,0,1-26,10,43,43,0,0,1-29-10V48H89Z" transform="translate(-0.14 0.1)"/><line class="cls-3" x1="50.53" y1="48.1" x2="51.18" y2="32.11"/><line class="cls-3" x1="74.86" y1="48.1" x2="74.86" y2="32.1"/><path class="cls-3" d="M75,32" transform="translate(-0.14 0.1)"/><path class="cls-3" d="M51.33,32C55.58,12.24,72,20,75,32" transform="translate(-0.14 0.1)"/></svg>